Coordinates
version=1
nRows=13
nColumns=34
inDegrees=no

Units are S.I. units (second, meters, Newtons, ...)
If the header above contains a line with 'inDegrees', this indicates whether rotational values are in degrees (yes) or radians (no).

endheader
time	pelvis_tilt	pelvis_list	pelvis_rotation	pelvis_tx	pelvis_ty	pelvis_tz	hip_flexion_r	hip_adduction_r	hip_rotation_r	knee_angle_r	ankle_angle_r	subtalar_angle_r	mtp_angle_r	hip_flexion_l	hip_adduction_l	hip_rotation_l	knee_angle_l	ankle_angle_l	subtalar_angle_l	mtp_angle_l	lumbar_extension	lumbar_bending	lumbar_rotation	arm_flex_r	arm_add_r	arm_rot_r	elbow_flex_r	pro_sup_r	arm_flex_l	arm_add_l	arm_rot_l	elbow_flex_l	pro_sup_l
0.67	-0.242935	0.0205419	-0.0383579	-1.11067	1.21213	-0.577328	0.51202	-0.0593603	-0.0503787	0.705366	0.601267	0.155119	0	0.501489	-0.0444835	-0.0474121	0.70399	0.584303	0.130445	0	-0.187064	0.0152215	-0.0737218	0.223538	-0.173995	0.16339	0.690429	2.09	0.290288	-0.14043	0.0830464	0.422859	2.09
0.68	-0.251069	0.0194895	-0.0384691	-1.10981	1.20837	-0.577319	0.529076	-0.0576279	-0.0468328	0.724531	0.609938	0.145116	0	0.520096	-0.0461737	-0.0441233	0.726074	0.593656	0.121181	0	-0.191284	0.0190118	-0.0784268	0.254433	-0.171948	0.176304	0.695054	2.09	0.319955	-0.142472	0.0892849	0.432274	2.09
0.69	-0.259042	0.01895	-0.0399795	-1.10884	1.20456	-0.5773	0.546098	-0.0559361	-0.0423996	0.743823	0.618538	0.135102	0	0.538207	-0.0480237	-0.0422591	0.748206	0.602452	0.111144	0	-0.195321	0.0216205	-0.0808878	0.28628	-0.169718	0.18851	0.700558	2.09	0.351847	-0.144072	0.095344	0.442638	2.09
0.7	-0.265941	0.0182648	-0.0426155	-1.1078	1.2008	-0.577155	0.562416	-0.0538138	-0.0379981	0.763778	0.626593	0.124917	0	0.555288	-0.0510606	-0.0418828	0.770935	0.610259	0.100988	0	-0.200356	0.0237257	-0.0812714	0.319333	-0.167439	0.199364	0.707598	2.09	0.386208	-0.145497	0.101703	0.453994	2.09
0.71	-0.272494	0.0169438	-0.0448491	-1.10667	1.197	-0.577018	0.578671	-0.051475	-0.0345543	0.784714	0.633832	0.114296	0	0.572491	-0.0543992	-0.0400777	0.794498	0.616212	0.0890002	0	-0.205539	0.0264688	-0.0812285	0.353628	-0.165011	0.20879	0.716037	2.09	0.422369	-0.14675	0.107205	0.466829	2.09
0.72	-0.278635	0.0156892	-0.0462132	-1.10537	1.19311	-0.57706	0.593974	-0.0494349	-0.0307147	0.805387	0.64088	0.102268	0	0.589593	-0.0565614	-0.0362475	0.818703	0.620231	0.0743028	0	-0.210748	0.0293642	-0.0814205	0.389185	-0.162688	0.217842	0.725505	2.09	0.460074	-0.147863	0.111824	0.481267	2.09
0.73	-0.283968	0.0151083	-0.0477555	-1.10389	1.18916	-0.577167	0.607108	-0.0465463	-0.0233571	0.824038	0.648192	0.0863573	0	0.60586	-0.0578952	-0.0324387	0.843432	0.622978	0.0577214	0	-0.216277	0.0314306	-0.0810714	0.426322	-0.160616	0.227709	0.735376	2.09	0.499451	-0.149347	0.117304	0.496668	2.09
0.74	-0.289331	0.0146511	-0.0501567	-1.10226	1.1851	-0.577123	0.619341	-0.0421457	-0.0136259	0.841297	0.655954	0.0682454	0	0.622003	-0.0599183	-0.0297589	0.868546	0.625335	0.0403206	0	-0.221048	0.0329512	-0.0792692	0.46482	-0.158645	0.238388	0.74518	2.09	0.540363	-0.151617	0.125385	0.512649	2.09
0.75	-0.29526	0.013587	-0.0527502	-1.10044	1.18093	-0.576963	0.632022	-0.0380163	-0.00672779	0.85896	0.664575	0.0537558	0	0.638405	-0.0632122	-0.0277498	0.893603	0.627978	0.0234306	0	-0.224399	0.0347754	-0.0765511	0.504282	-0.156724	0.249051	0.754921	2.09	0.58238	-0.154526	0.135415	0.530093	2.09
0.76	-0.301091	0.0121801	-0.0550154	-1.09837	1.17683	-0.576794	0.644393	-0.0352088	-0.00344492	0.877086	0.67369	0.0433017	0	0.65411	-0.0672525	-0.0259678	0.918225	0.63073	0.00841075	0	-0.227198	0.0366537	-0.0739975	0.544841	-0.154648	0.258832	0.764554	2.09	0.625172	-0.157746	0.144586	0.549949	2.09
0.77	-0.306534	0.0110218	-0.0573986	-1.09602	1.17286	-0.576579	0.655862	-0.0326767	-0.000279301	0.894979	0.682109	0.0327101	0	0.668633	-0.0715364	-0.0243305	0.94222	0.632783	-0.00487983	0	-0.229803	0.0378897	-0.0714017	0.586282	-0.152437	0.267927	0.774709	2.09	0.668582	-0.161253	0.152163	0.571822	2.09
0.78	-0.311981	0.0102526	-0.0600383	-1.09337	1.16901	-0.576346	0.666837	-0.0301182	0.00376487	0.912536	0.689566	0.0212318	0	0.682208	-0.0755536	-0.0229566	0.965136	0.633595	-0.0183683	0	-0.231453	0.0385564	-0.0682363	0.627745	-0.150896	0.277665	0.786931	2.09	0.712406	-0.165501	0.160574	0.595014	2.09
0.79	-0.31749	0.0101803	-0.0624311	-1.09035	1.1652	-0.576212	0.677189	-0.0283292	0.00811173	0.929474	0.696765	0.00972179	0	0.694763	-0.0784261	-0.0222194	0.986672	0.632919	-0.0339238	0	-0.231637	0.0385271	-0.0651593	0.669146	-0.149757	0.28743	0.800434	2.09	0.756204	-0.170991	0.171258	0.619674	2.09
